<?xml version="1.0" encoding="UTF-8" standalone="no"?>
<!DOCTYPE svg PUBLIC "-//W3C//DTD SVG 1.1//EN" "http://www.w3.org/Graphics/SVG/1.1/DTD/svg11.dtd">
<!-- Created with Vectornator (http://vectornator.io/) -->
<svg height="100%" stroke-miterlimit="10" style="fill-rule:nonzero;clip-rule:evenodd;stroke-linecap:round;stroke-linejoin:round;" version="1.1" viewBox="79.8955 360.912 920.209 358.176" width="100%" xml:space="preserve" xmlns="http://www.w3.org/2000/svg" xmlns:vectornator="http://vectornator.io" xmlns:xlink="http://www.w3.org/1999/xlink">
<defs>
<linearGradient gradientTransform="matrix(920.209 0 0 917.086 79.8955 540)" gradientUnits="userSpaceOnUse" id="LinearGradient" x1="0" x2="1" y1="0" y2="0">
<stop offset="0" stop-color="#91df58"/>
<stop offset="1" stop-color="#f6e526" stop-opacity="0.869821"/>
</linearGradient>
</defs>
<clipPath id="ArtboardFrame">
<rect height="358.176" width="920.209" x="79.8955" y="360.912"/>
</clipPath>
<g clip-path="url(#ArtboardFrame)" id="Layer" vectornator:layerName="Layer">
<g opacity="1" vectornator:layerName="Signature">
<path d="M234.625 608.762C241.266 614.637 246.222 623.31 254.548 626.386C261.753 629.048 270.249 627.055 277.532 624.612C293.507 619.254 299.273 601.656 306.546 589.06C313.639 598.266 319.55 608.512 327.827 616.678C332.421 621.21 338.053 626.404 344.515 626.519C353.318 626.677 361.947 622.248 369.299 617.422C390.988 603.184 410.343 585.697 430.866 569.835C431.605 580.404 429.23 586.146 440.358 592.112C451.066 597.852 462.063 606.519 474.194 605.692C485.468 604.923 494.358 595.123 502.977 587.839C512.012 580.205 525.854 564.72 523.953 550.304C522.598 540.033 513.867 531.044 514.46 520.702C514.798 514.807 521.848 511.357 526.402 507.58C527.463 506.701 529.158 507.44 530.536 507.37C533.042 526.751 529.322 546.501 526.708 565.867C529.646 565.247 529.646 565.247 532.584 564.628C533.673 572.065 538.32 579.073 543.856 584.177C544.621 580.515 544.621 580.515 545.387 576.853C559.194 594.768 559.796 556.179 563.377 548.854C568.455 538.469 574.62 527.931 583.663 520.702C596.842 510.167 613.467 504.834 628.369 496.899C638.684 506.302 647.57 517.553 659.315 525.108C669.381 531.583 679.683 524.868 688.386 521.313C689.036 534.21 691.501 551.923 683.18 563.273C667.057 585.267 644.148 601.589 627.049 622.838C615.42 637.289 604.636 652.836 597.385 669.891C594.255 677.251 595.826 685.938 596.849 693.866C598.131 703.801 608.476 713.4 615.815 718.146C617.549 719.268 620.315 719.471 622.015 718.299C658.78 692.944 681.226 649.007 698.184 609.316C704.09 595.494 701.813 577.755 711.504 566.249C733.927 539.626 764.69 521.27 791.283 498.78C802.57 509.222 811.298 523.388 825.145 530.105C838.638 536.651 854.654 536.756 869.66 536.8C898.913 536.885 926.793 522.603 953.255 510.174C955.383 509.175 956.317 506.614 957.848 504.834C952.336 504.223 952.336 504.223 946.824 503.613C973.464 492.932 973.464 492.932 1000.1 482.251C962.926 490.764 926.155 501.296 888.569 507.79C868.726 511.218 846.33 509.827 828.629 500.256C824.051 497.781 822.377 491.953 819.251 487.802C837.693 484.84 858.134 479.48 870.732 465.734C877.635 458.201 883.913 448.499 884.358 438.307C884.9 425.9 879.411 413.586 873.488 402.66C868.589 393.623 852.125 389.898 843.269 391.254C824.557 394.119 807.53 401.153 794.257 414.886C789.056 420.266 783.406 426.376 782.085 433.73C779.628 447.404 789.381 462.844 783.386 475.385C775.848 491.157 758.53 500.094 745.034 511.242C734.766 519.724 723.191 526.501 712.27 534.13C710.917 525.121 705.117 515.674 708.213 507.103C711.272 498.632 722.817 496.193 728.499 489.194C733.872 482.575 737.744 474.752 740.9 466.84C742.912 461.797 745.609 455.941 743.809 450.819C741.164 443.292 735.296 436.76 728.728 432.204C721.206 426.985 712.165 422.902 703.007 422.515C694.945 422.174 687.19 426.414 680.042 430.144C676.618 431.93 673.039 434.863 672.157 438.612C670.164 447.08 670.283 456.159 671.908 464.704C674.013 475.777 681.666 485.425 683.18 496.594C683.574 499.5 679.877 502.013 677.094 502.965C670.875 505.091 663.731 507.508 657.516 505.368C650.745 503.036 647.874 494.525 641.766 490.796C634.367 486.279 626.297 481.761 617.652 481.031C595.957 479.198 576.427 495.788 560.028 505.73C557.725 499.76 557.361 492.62 553.119 487.821C549.814 484.082 543.268 485.123 539.225 482.194C537.597 481.015 538.025 478.367 537.426 476.453C524.361 484.489 513.106 496.772 498.231 500.561C492.075 502.13 488.033 492.616 482.021 490.567C473.04 487.506 460.374 491.911 454.444 498.73C452.207 501.302 454.485 505.865 452.759 508.801C450.034 513.438 443.716 515.552 441.64 520.512C435.524 535.124 437.971 553.357 428.722 566.23C424.509 572.094 413.975 566.182 407.135 568.538C395.734 572.463 385.598 579.371 374.83 584.788C382.97 576.421 392.564 569.249 399.25 559.688C403.143 554.121 407.47 547.015 405.852 540.424C403.148 529.405 394.884 520.354 387.48 511.738C384.241 507.97 367.956 494.202 358.83 497.586C353.007 499.745 346.887 503.519 344.209 509.106C335.332 527.625 331.552 548.168 325.224 567.698C319.987 567.037 314.066 568.376 309.512 565.715C307.02 564.259 308.147 560.12 307.464 557.323C306.214 557.552 304.651 557.154 303.713 558.009C288.883 571.533 274.981 586.034 260.614 600.046C259.042 589.991 255.955 578.054 261.533 569.529C258.139 566.198 255.736 561.391 251.352 559.535C247.614 557.953 243.237 559.891 239.18 560.069C239.639 555.949 239.639 555.949 240.099 551.83C238.261 551.931 235.705 550.679 234.587 552.135C221.534 569.126 211.96 588.601 198.837 605.539C182.507 626.617 164.687 646.547 146.399 665.962C136.098 676.899 127.687 676.298 113.329 679.695C125.591 603.08 149.341 542.118 185.67 472.867C192.448 459.948 200.326 447.533 209.248 435.98C217.623 425.136 227.09 415.06 237.343 405.959C242.506 401.376 249.935 399.857 255.103 395.279C256.75 393.82 254.897 390.221 256.634 388.87C259.663 386.514 263.983 386.632 267.657 385.513C270.966 406.895 265.472 428.816 261.992 450.171C271.919 453.036 284.501 445.771 290.087 437.106C294.729 429.904 295.752 420.735 296.345 412.196C297.479 395.884 289.925 375.502 275.465 367.775C266.672 363.076 256.031 359.58 246.223 361.405C233.687 363.738 222.201 371.19 212.54 379.486C198.951 391.155 187.295 405.241 177.632 420.302C144.882 471.354 119.849 528.742 99.607 585.703C92.8942 604.593 87.1276 623.871 82.7847 643.437C80.8146 652.314 78.6572 661.788 80.7561 670.635C83.2017 680.944 88.1905 691.297 95.8751 698.615C103.874 706.233 114.625 714.762 125.596 713.34C142.72 711.12 158.76 700.784 171.202 688.85C195.789 665.267 213.484 635.458 234.625 608.762ZM853.431 400.466C893.785 408.118 844.365 462.622 821.586 457.228C812.784 455.143 820.896 457.166 816.17 450.762C813.457 447.087 809.995 448.307 809.644 444.105C808.482 430.207 839.029 397.735 853.431 400.466ZM714.107 436.476C738.385 437.664 711.049 472.23 704.232 480.115C704.038 480.34 701.214 486.003 698.797 485.074C693.774 483.144 691.651 472.745 690.529 468.595C686.372 453.218 699.474 435.761 714.107 436.476ZM959.073 504.223C962.441 502.698 962.441 502.698 965.809 501.172C962.345 500.555 960.591 500.982 959.073 504.223ZM138.744 523.144C140.168 528.441 133.713 533.757 132.161 539.241C126.794 558.204 119.476 575.169 113.099 593.943C111.998 597.186 109.272 609.061 104.755 609.812C109.853 588.974 117.318 562.609 127.567 543.285C129.554 539.54 130.703 531.585 135.376 530.468C135.376 526.555 135.039 524.964 138.744 523.144ZM372.992 526.806C383.618 533.866 373.109 543.002 366.868 548.778C367.389 541.684 367.568 532.212 372.992 526.806ZM487.82 528.027C500.722 535.374 474.352 563.28 466.079 566.478C466.54 556.836 467.323 538.104 474.347 530.468C476.818 527.781 482.628 529.354 487.82 528.027ZM104.755 612.253C104.376 616.785 105.848 621.395 101.578 623.105C100.076 619.362 101.986 614.808 104.755 612.253ZM656.54 622.629C657.008 637.185 628.236 666.491 617.958 676.948C616.189 667.988 630.735 656.175 636.484 648.873C643.294 640.221 649.855 631.377 656.54 622.629Z" fill="url(#LinearGradient)" fill-rule="nonzero" opacity="1" stroke="none" vectornator:layerName="曲线 1"/>
</g>
</g>
</svg>
